<?xml version="1.0" encoding="UTF-8" standalone="no"?>
<svg width="104px" height="14px" viewBox="0 0 104 14" version="1.1" xmlns="http://www.w3.org/2000/svg" xmlns:xlink="http://www.w3.org/1999/xlink" xmlns:sketch="http://www.bohemiancoding.com/sketch/ns">
    <!-- Generator: Sketch 3.0.4 (8053) - http://www.bohemiancoding.com/sketch -->
    <title>z</title>
    <desc>Created with Sketch.</desc>
    <defs></defs>
    <g id="idea" stroke="none" stroke-width="1" fill="none" fill-rule="evenodd" sketch:type="MSPage">
        <g id="line" sketch:type="MSLayerGroup" transform="translate(1.000000, 1.000000)" stroke="#000000" stroke-width="2" stroke-linecap="square">
            <path d="M0,0 L16,0 L16,6 L0,6 L0,12" id="Path-247" sketch:type="MSShapeGroup"></path>
            <path d="M22,0 L22,12" id="Path-248" sketch:type="MSShapeGroup"></path>
            <path d="M28,0 L44,0 L44,12" id="Path-249" sketch:type="MSShapeGroup"></path>
            <path d="M66,0 L50,0 M50,12 L66,12 L66,6 L58,6" id="Path-250" sketch:type="MSShapeGroup"></path>
            <path d="M72,6 L84,6" id="Path-251" sketch:type="MSShapeGroup"></path>
            <path d="M78,12 L78,0" id="Path-252" sketch:type="MSShapeGroup"></path>
            <path d="M90,6 L102,6" id="Path-254" sketch:type="MSShapeGroup"></path>
            <path d="M96,12 L96,0" id="Path-253" sketch:type="MSShapeGroup"></path>
            <path d="M28,0.2 L28,12" id="Path-304" sketch:type="MSShapeGroup"></path>
            <path d="M50,0 L50,12" id="Path-305" sketch:type="MSShapeGroup"></path>
        </g>
    </g>
</svg>